<svg height="28" viewBox="0 0 32 32" width="28" xmlns="http://www.w3.org/2000/svg" fill="none"><path d="M24.1842 2.25578C21.7864 0.817778 19.0022 0 16.0002 0C12.9771 0 10.1089 0.846889 7.70244 2.32267C6.98111 2.76689 6.57444 3.12356 6.57444 3.58067C6.57444 4.93089 9.72733 6.38156 15.3207 6.38156C20.8558 6.38156 25.1489 4.79222 25.1489 3.262C25.1489 2.89711 24.8302 2.64133 24.1842 2.25578M26.5662 4.03333C26.6333 4.13822 26.6669 4.25133 26.6669 4.40222C26.6669 6.18022 21.2287 9.32489 12.5704 9.32489C6.20933 9.32489 5.01889 6.96422 5.01889 5.46289C5.01889 4.92622 5.22444 4.37711 5.67733 3.81978C5.70267 3.786 5.68133 3.77333 5.65222 3.79867C4.82622 4.49867 4.06711 5.28689 3.40067 6.13844C3.082 6.54089 2.88467 6.89733 2.88467 7.11089C2.88467 10.222 10.6833 12.4778 17.9749 12.4778C25.7442 12.4778 29.212 9.94111 29.212 7.71067C29.212 6.91378 28.902 6.44844 28.1091 5.54689C27.5936 4.96 27.1069 4.48222 26.5916 4.01222C26.5662 3.99156 26.5491 4.00822 26.5662 4.03333M1.54267 9.136C1.07378 10.0671 0.553778 11.6391 0.398667 12.4524C0.331111 12.8009 0.360444 12.9682 0.482222 13.2284C1.46378 15.3122 6.428 18.6458 18.0087 18.6458C25.0733 18.6458 30.562 16.9096 31.4509 13.7402C31.6144 13.1569 31.6231 12.5407 31.4131 11.7107C31.178 10.7836 30.738 9.70222 30.3651 8.94333C30.3527 8.918 30.3313 8.92222 30.3353 8.95133C30.4738 13.1069 18.8891 15.786 13.044 15.786C6.71267 15.786 1.43 13.262 1.43 10.0751C1.43 9.76911 1.49289 9.46311 1.57244 9.14444C1.58044 9.11533 1.55533 9.11067 1.54267 9.136M12.7842 22.4147C4.59578 22.4147 0.734 18.5996 0.0337778 15.9958C0.0251111 15.9576 0 15.9662 0 16C0 16.8762 0.088 18.008 0.239111 18.7587C0.310667 19.1236 0.608 19.698 1.044 20.1549C3.02711 22.2222 7.97067 25.1193 16.5322 25.1193C28.1971 25.1193 30.864 21.2327 31.4087 19.9538C31.7987 19.0398 32 17.3876 32 16C32 15.6642 31.9913 15.396 31.9789 15.132C31.9789 15.0898 31.9542 15.086 31.9456 15.1276C31.3627 18.2558 21.3962 22.4147 12.7842 22.4147M17.086 29.4547C21.0233 29.4547 25.3502 28.3813 27.9373 26.2556C28.6456 25.6771 29.3207 24.9058 29.9247 23.87C30.2724 23.2744 30.6122 22.566 30.8891 21.87C30.9018 21.8364 30.8804 21.8198 30.8553 21.8573C28.4489 25.4002 21.4804 27.6096 14.2853 27.6096C9.19933 27.6096 3.72733 25.9831 1.58511 22.8762C1.564 22.8469 1.54267 22.8596 1.55533 22.8929C3.55178 27.136 9.60622 29.4547 17.086 29.4547M6.18889 28.6371C8.90133 30.7378 12.3062 32 16.0002 32C20.0422 32 23.7278 30.4987 26.5404 28.0336C26.5742 28.0038 26.5578 27.9831 26.5244 28.0038C25.262 28.8469 21.6644 30.6876 16.0002 30.6876C11.0773 30.6876 7.96667 29.5889 6.20933 28.6078C6.17622 28.5913 6.16356 28.6164 6.18889 28.6371" fill="#009FDB"></path></svg>